<svg width="512" height="512" viewBox="0 0 512 512" fill="none" xmlns="http://www.w3.org/2000/svg">
<path fill-rule="evenodd" clip-rule="evenodd" d="M268.202 7.34936C260.467 2.88354 250.938 2.88355 243.202 7.34937L46.5 120.916C38.765 125.381 34 133.635 34 142.566V369.699C34 378.63 38.765 386.884 46.5 391.349L243.202 504.916C250.938 509.381 260.467 509.381 268.202 504.916L464.905 391.349C472.64 386.884 477.405 378.63 477.405 369.699V142.566C477.405 133.635 472.64 125.381 464.905 120.916L268.202 7.34936ZM268.202 135.349C260.467 130.884 250.938 130.884 243.202 135.349L157.351 184.916C149.616 189.381 144.851 197.635 144.851 206.566V305.699C144.851 314.63 149.616 322.884 157.351 327.349L243.202 376.916C250.938 381.381 260.467 381.381 268.202 376.916L354.054 327.349C361.789 322.884 366.554 314.63 366.554 305.699V206.566C366.554 197.635 361.789 189.381 354.054 184.916L268.202 135.349Z" fill="#00A8F1"/>
<path d="M243.5 173.217C251.235 168.751 260.765 168.751 268.5 173.217L321.442 203.783C329.177 208.249 333.942 216.502 333.942 225.434V286.566C333.942 295.498 329.177 303.751 321.442 308.217L268.5 338.783C260.765 343.249 251.235 343.249 243.5 338.783L190.558 308.217C182.823 303.751 178.058 295.498 178.058 286.566V225.434C178.058 216.502 182.823 208.249 190.558 203.783L243.5 173.217Z" fill="white"/>
</svg>
